<svg xmlns="http://www.w3.org/2000/svg" viewBox="0 0 24 24"><path d="M12 .5A11.5 11.5 0 0 0 .5 12c0 5.08 3.29 9.39 7.86 10.91.58.11.79-.25.79-.56v-2c-3.2.7-3.87-1.37-3.87-1.37-.52-1.33-1.28-1.69-1.28-1.69-1.05-.72.08-.7.08-.7 1.16.08 1.77 1.2 1.77 1.2 1.03 1.77 2.71 1.26 3.37.96.1-.75.4-1.26.73-1.55-2.55-.29-5.23-1.28-5.23-5.7 0-1.26.45-2.28 1.2-3.09-.12-.29-.52-1.47.11-3.06 0 0 .97-.31 3.18 1.18a11 11 0 0 1 5.79 0c2.21-1.49 3.18-1.18 3.18-1.18.63 1.59.23 2.77.11 3.06.75.81 1.2 1.83 1.2 3.09 0 4.43-2.69 5.41-5.25 5.69.41.35.78 1.04.78 2.1v3.11c0 .31.21.67.8.56A11.5 11.5 0 0 0 23.5 12 11.5 11.5 0 0 0 12 .5z"/></svg>
