<svg xmlns="http://www.w3.org/2000/svg" viewBox="0 0 180 180" role="img" aria-label="LoraDB">
  <defs>
    <linearGradient id="bg" x1="0" y1="0" x2="180" y2="180" gradientUnits="userSpaceOnUse">
      <stop offset="0" stop-color="#1b6dff"/>
      <stop offset="1" stop-color="#6e5afd"/>
    </linearGradient>
    <radialGradient id="glow" cx="90" cy="90" r="90" gradientUnits="userSpaceOnUse">
      <stop offset="0" stop-color="#ffffff" stop-opacity="0.18"/>
      <stop offset="1" stop-color="#ffffff" stop-opacity="0"/>
    </radialGradient>
  </defs>
  <rect width="180" height="180" rx="40" ry="40" fill="url(#bg)"/>
  <rect width="180" height="180" rx="40" ry="40" fill="url(#glow)"/>
  <!-- Mark centered on bbox centroid (12,12), scaled 7x → ~76% canvas coverage. -->
  <g transform="translate(90 90) scale(7) translate(-12 -12)" fill="none" stroke="#ffffff" stroke-width="1.2" stroke-linecap="round">
    <path d="M4 6 12 13"/>
    <path d="M12 4 12 13"/>
    <path d="M20 8 12 13"/>
    <path d="M6 18 12 13"/>
    <path d="M18 20 12 13"/>
    <path d="M4 6 12 4"/>
    <path d="M12 4 20 8"/>
    <path d="M6 18 18 20"/>
  </g>
  <g transform="translate(90 90) scale(7) translate(-12 -12)" fill="#ffffff">
    <circle cx="4" cy="6" r="1.8"/>
    <circle cx="12" cy="4" r="1.8"/>
    <circle cx="20" cy="8" r="1.8"/>
    <circle cx="6" cy="18" r="1.8"/>
    <circle cx="18" cy="20" r="1.8"/>
    <circle cx="12" cy="13" r="2.8"/>
  </g>
</svg>
