<svg xmlns="http://www.w3.org/2000/svg" viewBox="0 0 32 32" role="img" aria-label="LoraDB">
  <defs>
    <linearGradient id="bg" x1="0" y1="0" x2="32" y2="32" gradientUnits="userSpaceOnUse">
      <stop offset="0" stop-color="#1b6dff"/>
      <stop offset="1" stop-color="#6e5afd"/>
    </linearGradient>
  </defs>
  <rect width="32" height="32" rx="7" ry="7" fill="url(#bg)"/>
  <!-- Mark centered on its visual bbox centroid (12,12) and uniformly scaled to ~84% of canvas. -->
  <g transform="translate(16 16) scale(1.37) translate(-12 -12)" fill="none" stroke="#ffffff" stroke-width="1.3" stroke-linecap="round">
    <path d="M4 6 12 13"/>
    <path d="M12 4 12 13"/>
    <path d="M20 8 12 13"/>
    <path d="M6 18 12 13"/>
    <path d="M18 20 12 13"/>
    <path d="M4 6 12 4"/>
    <path d="M12 4 20 8"/>
    <path d="M6 18 18 20"/>
  </g>
  <g transform="translate(16 16) scale(1.37) translate(-12 -12)" fill="#ffffff">
    <circle cx="4" cy="6" r="1.8"/>
    <circle cx="12" cy="4" r="1.8"/>
    <circle cx="20" cy="8" r="1.8"/>
    <circle cx="6" cy="18" r="1.8"/>
    <circle cx="18" cy="20" r="1.8"/>
    <circle cx="12" cy="13" r="2.8"/>
  </g>
</svg>
